<svg id="Layer_1" data-name="Layer 1" xmlns="http://www.w3.org/2000/svg" viewBox="0 0 440.06 519.1"><defs><style>.cls-1{fill:#fc4549;}</style></defs><path class="cls-1" d="M165.37,0c12.45,5.21,15.93,15.2,15.13,27.73-.37,5.89-.05,11.82-.06,17.74,0,12.2-4.91,19.65-14.78,22.61-9.24,2.77-17.43-1-24.25-11.54a31.43,31.43,0,0,0-3.36,1.63Q95.89,84.8,53.78,111.47c-9.85,6.24-15,17.77-12.9,28.64,1.6,8.42,5.69,12.06,14.25,11.9,14.23-.25,27.23-5.3,39-12.56,26.71-16.46,53-33.55,79.34-50.65,24.62-16,49-32.39,73.5-48.54,10.61-7,21.1-6,28.24,2.37,7.54,8.87,6.52,22.95-2.29,30.56a53.42,53.42,0,0,1-5.32,3.86c-31.68,21.23-63.49,42.26-95,63.73-18.6,12.67-28,31.26-30.46,53.15a375.22,375.22,0,0,0-2.06,40.93c-.21,57.44-.09,114.88-.09,172.32,0,17.81-4,23.52-21.46,27.69-30.15,7.19-59.73,4.89-87.89-8.28C10.2,417-.16,401.16,0,377.58c.55-80.24.08-160.49.29-240.73.06-25.8,10.78-46,33-60C70,53.74,106.53,30.32,143.14,7.09c3.94-2.51,8.06-4.73,12.1-7.09Z"/><path class="cls-1" d="M301.43,127.55c-24.3,16.81-48.39,33.27-72.23,50.09a227.15,227.15,0,0,0-23.57,18.94c-5.79,5.37-6,13-4.57,20.37,1.34,7.12,8,11.65,16.6,12.22,16.07,1.05,31.1-3.32,44.36-11.52,18.33-11.33,36-23.86,53.26-36.74,30.45-22.69,60.38-46.07,90.58-69.11,12.35-9.42,27.57-6,32.63,7.38a25.8,25.8,0,0,1,1.49,8.9q.11,127.93.08,255.87c0,7.22-2.31,13.28-8.13,17.66-45.58,34.29-91.05,68.73-136.87,102.7-18.12,13.42-39.36,16.18-61.22,14.23-18.41-1.63-35.71-7-50.79-18.11s-23-25.57-23-44.85c.31-81.91.14-163.82.23-245.73,0-19.84,8.24-36.4,23.54-48.37,18.71-14.64,38.49-27.94,58-41.55C263.44,104.87,285.19,90,307,75.25c12.5-8.48,26.73-4.59,31.75,8.52a18.88,18.88,0,0,1,1.23,6.39c.13,10,.41,19.93,0,29.88s-6.25,16.74-15.29,18.94c-8.58,2.08-16.59-1.45-21.94-9.66C302.43,128.9,302.11,128.51,301.43,127.55ZM300.16,331.9a11.68,11.68,0,0,0,1.93-.86q47.58-36.87,95.07-73.85a8,8,0,0,0,2.44-5.5c.23-10.62.12-21.25.09-31.88a23.76,23.76,0,0,0-.43-3.18,4.16,4.16,0,0,0-.9.2q-48,37.15-95.91,74.4a6.67,6.67,0,0,0-2.19,4.61C300.07,307.63,300.16,319.44,300.16,331.9Z"/></svg>